<svg width="20" height="20" viewBox="0 0 20 20" fill="none" xmlns="http://www.w3.org/2000/svg">
<path d="M0.32959 6.64746H4.47628V20H0.32959V6.64746Z" fill="white"/>
<path d="M2.40168 0C1.07584 0 0 1.07584 0 2.40168C0 3.72752 1.07584 4.82586 2.40168 4.82586C3.72752 4.82586 4.80336 3.72752 4.80336 2.40168C4.80253 1.07584 3.72669 0 2.40168 0V0Z" fill="white"/>
<path d="M19.9951 20.0002V19.9994H20.0001V12.6643C20.0001 9.07595 19.2276 6.31177 15.0326 6.31177C13.0159 6.31177 11.6626 7.41844 11.1101 8.46761H11.0517V6.64677H7.07422V19.9994H11.2159V13.3876C11.2159 11.6468 11.5459 9.96346 13.7018 9.96346C15.8259 9.96346 15.8576 11.9501 15.8576 13.4993V20.0002H19.9951Z" fill="white"/>
</svg>
