<svg width="20" height="18" viewBox="0 0 20 18" fill="none" xmlns="http://www.w3.org/2000/svg">
<path d="M20 2.57688C19.2563 2.90562 18.4637 3.12353 17.6375 3.22933C18.4875 2.71795 19.1363 1.91436 19.4412 0.945759C18.6488 1.42187 17.7738 1.75817 16.8412 1.94584C16.0887 1.13847 15.0162 0.638428 13.8462 0.638428C11.5763 0.638428 9.74875 2.49501 9.74875 4.77102C9.74875 5.09851 9.77625 5.41339 9.84375 5.71317C6.435 5.54565 3.41875 3.89941 1.3925 1.39164C1.03875 2.01008 0.83125 2.71795 0.83125 3.47998C0.83125 4.91083 1.5625 6.1792 2.6525 6.91352C1.99375 6.90093 1.3475 6.70822 0.8 6.40466C0.8 6.41726 0.8 6.43363 0.8 6.45001C0.8 8.45773 2.22125 10.1254 4.085 10.5095C3.75125 10.6015 3.3875 10.6456 3.01 10.6456C2.7475 10.6456 2.4825 10.6305 2.23375 10.575C2.765 12.2112 4.2725 13.4141 6.065 13.4531C4.67 14.5527 2.89875 15.2152 0.98125 15.2152C0.645 15.2152 0.3225 15.2001 0 15.1586C1.81625 16.3388 3.96875 17.0126 6.29 17.0126C13.835 17.0126 17.96 10.7149 17.96 5.25595C17.96 5.07331 17.9538 4.89698 17.945 4.7219C18.7588 4.13999 19.4425 3.41322 20 2.57688Z" fill="white"/>
</svg>
