<svg width="20" height="15" viewBox="0 0 20 15" fill="none" xmlns="http://www.w3.org/2000/svg">
<path d="M19.5931 2.83768C19.4793 2.41538 19.2569 2.03026 18.948 1.72064C18.639 1.41102 18.2544 1.18771 17.8324 1.07293C16.2675 0.643233 10.0069 0.636238 10.0069 0.636238C10.0069 0.636238 3.74735 0.629243 2.18146 1.03995C1.75968 1.16001 1.37585 1.38648 1.06681 1.69762C0.757775 2.00876 0.533909 2.39412 0.416707 2.8167C0.00399882 4.38159 1.46411e-06 7.62729 1.46411e-06 7.62729C1.46411e-06 7.62729 -0.00399569 10.889 0.405714 12.4379C0.635552 13.2943 1.31008 13.9708 2.16747 14.2016C3.74835 14.6313 9.99193 14.6383 9.99193 14.6383C9.99193 14.6383 16.2525 14.6453 17.8174 14.2356C18.2396 14.121 18.6246 13.8982 18.9343 13.5893C19.2439 13.2803 19.4676 12.8958 19.5831 12.4739C19.9969 10.91 19.9999 7.66527 19.9999 7.66527C19.9999 7.66527 20.0198 4.40257 19.5931 2.83768ZM8.00434 10.6342L8.00934 4.63841L13.2127 7.64128L8.00434 10.6342Z" fill="white"/>
</svg>
